<svg width="190" height="190" viewBox="0 0 190 190" fill="none" xmlns="http://www.w3.org/2000/svg">
<path fill-rule="evenodd" clip-rule="evenodd" d="M83.7608 72.9801C73.4378 71.1001 65.2748 73.0665 62.021 78.7026C59.593 82.9069 60.2867 88.4826 63.7035 94.4409C63.8438 94.6839 64.0746 94.8615 64.3455 94.9349C64.6163 95.0082 64.9052 94.9713 65.1489 94.8322C65.392 94.6919 65.5696 94.4611 65.6429 94.1902C65.7162 93.9194 65.6793 93.6305 65.5402 93.3868C62.4629 88.0172 61.8643 83.2069 63.8541 79.7593C66.5697 75.0785 73.8377 73.3232 83.3819 75.0612C83.6579 75.1106 83.9423 75.0487 84.1729 74.8891C84.4034 74.7296 84.5615 74.4852 84.6126 74.2095C84.6619 73.9335 84.6001 73.6491 84.4405 73.4185C84.2809 73.188 84.0366 73.0299 83.7608 72.9788V72.9801ZM69.0718 101.672C73.2464 106.259 78.6691 110.562 84.8545 114.133C99.8423 122.78 115.784 125.1 123.631 119.743C123.863 119.584 124.022 119.34 124.074 119.065C124.126 118.789 124.066 118.504 123.909 118.272C123.75 118.04 123.506 117.881 123.231 117.829C122.955 117.777 122.67 117.836 122.438 117.994C115.405 122.788 100.261 120.594 85.9 112.31C79.901 108.846 74.6487 104.679 70.6246 100.257C70.4352 100.05 70.1715 99.9265 69.8911 99.9133C69.6108 99.9001 69.3366 99.9985 69.1286 100.187C68.9214 100.376 68.7978 100.64 68.7846 100.92C68.7714 101.201 68.8698 101.475 69.0582 101.683L69.0718 101.672ZM121.135 100.397C127.895 92.4104 130.255 84.3795 127.008 78.7582C124.62 74.6206 119.57 72.4357 112.858 72.3493C112.577 72.3463 112.307 72.4545 112.106 72.6502C111.905 72.8458 111.789 73.1131 111.785 73.3936C111.782 73.6741 111.89 73.9444 112.086 74.1453C112.281 74.3463 112.549 74.4617 112.829 74.4663C118.878 74.5453 123.216 76.4264 125.173 79.8173C127.87 84.4882 125.765 91.65 119.517 99.0316C119.336 99.2461 119.248 99.5236 119.271 99.8032C119.294 100.083 119.427 100.342 119.64 100.524C119.855 100.705 120.132 100.793 120.412 100.77C120.692 100.747 120.951 100.614 121.133 100.4L121.135 100.397ZM103.763 73.3306C97.6525 74.6391 91.1449 77.2004 84.8977 80.8072C69.4384 89.7318 59.3535 102.906 60.7521 112.436C60.7936 112.713 60.9432 112.963 61.1683 113.13C61.3933 113.298 61.6755 113.369 61.9531 113.329C62.2306 113.288 62.4803 113.138 62.6477 112.913C62.8152 112.688 62.8868 112.406 62.8468 112.128C61.6038 103.656 71.1628 91.1809 85.9543 82.6267C92.0028 79.1273 98.3141 76.6486 104.205 75.3859C104.479 75.3264 104.718 75.1608 104.87 74.9254C105.023 74.6899 105.076 74.4037 105.018 74.1293C104.959 73.8552 104.793 73.6158 104.558 73.4634C104.322 73.311 104.036 73.2579 103.761 73.3158L103.763 73.3306Z" fill="#47848F"/>
<path fill-rule="evenodd" clip-rule="evenodd" d="M78.7186 119.054C82.2526 128.923 88.0344 135 94.5371 135C99.2796 135 103.667 131.766 107.087 126.075C107.231 125.835 107.274 125.547 107.206 125.274C107.138 125.002 106.965 124.768 106.725 124.623C106.485 124.479 106.197 124.436 105.924 124.504C105.652 124.571 105.418 124.744 105.272 124.984C102.187 130.098 98.4217 132.881 94.5371 132.881C89.1367 132.881 83.9795 127.449 80.7121 118.34C80.6168 118.076 80.4208 117.86 80.167 117.741C79.9133 117.621 79.6224 117.606 79.358 117.7C79.0941 117.796 78.8787 117.992 78.7589 118.245C78.639 118.499 78.6246 118.79 78.7186 119.054ZM111.001 117.124C112.831 111.277 113.813 104.533 113.813 97.5034C113.813 79.9654 107.675 64.8468 98.9315 60.9659C98.6747 60.8527 98.3836 60.8458 98.1218 60.9467C97.8599 61.0475 97.6487 61.2479 97.5342 61.5041C97.421 61.7609 97.4141 62.052 97.5149 62.3138C97.6158 62.5756 97.8162 62.7869 98.0724 62.9014C105.871 66.3626 111.695 80.7122 111.695 97.5046C111.695 104.323 110.744 110.856 108.979 116.493C108.896 116.761 108.922 117.051 109.052 117.3C109.182 117.548 109.406 117.735 109.673 117.82C109.941 117.903 110.231 117.877 110.48 117.747C110.728 117.617 110.915 117.394 111 117.126L111.001 117.124ZM130.939 116.087C130.939 113.289 128.67 111.02 125.872 111.02C123.073 111.02 120.792 113.275 120.792 116.087C120.792 118.899 123.061 121.154 125.859 121.154C128.658 121.154 130.926 118.885 130.926 116.087H130.939ZM128.822 116.087C128.822 116.869 128.511 117.619 127.958 118.172C127.405 118.725 126.655 119.036 125.873 119.036C125.091 119.036 124.341 118.725 123.788 118.172C123.235 117.619 122.924 116.869 122.924 116.087C122.924 115.305 123.235 114.555 123.788 114.002C124.341 113.449 125.091 113.138 125.873 113.138C126.655 113.138 127.405 113.449 127.958 114.002C128.511 114.555 128.822 115.305 128.822 116.087V116.087Z" fill="#47848F"/>
<path fill-rule="evenodd" clip-rule="evenodd" d="M63.127 121.154C65.9254 121.154 68.1941 118.885 68.1941 116.087C68.1941 113.289 65.9254 111.02 63.127 111.02C61.7832 111.02 60.4944 111.554 59.5442 112.504C58.5941 113.455 58.0604 114.744 58.0605 116.088C58.0607 117.431 58.5947 118.72 59.5451 119.67C60.4955 120.62 61.7844 121.154 63.1283 121.154H63.127ZM63.127 119.037C62.345 119.037 61.5952 118.726 61.0422 118.173C60.4892 117.62 60.1784 116.87 60.1781 116.088C60.1784 115.306 60.4892 114.556 61.0422 114.003C61.5952 113.45 62.345 113.14 63.127 113.139C63.909 113.14 64.6589 113.45 65.2119 114.003C65.7648 114.556 66.0756 115.306 66.076 116.088C66.0756 116.87 65.7648 117.62 65.2119 118.173C64.6589 118.726 63.909 119.037 63.127 119.037V119.037ZM94.5369 66.1219C97.3353 66.1219 99.6041 63.8531 99.6041 61.0548C99.6041 58.2564 97.334 56 94.5369 56C91.7399 56 89.4698 58.2688 89.4698 61.0671C89.4698 63.8654 91.7386 66.1219 94.5369 66.1219ZM94.5369 64.0049C93.7549 64.0046 93.0051 63.6938 92.4521 63.1408C91.8991 62.5879 91.5884 61.838 91.588 61.056C91.5884 60.274 91.8991 59.5241 92.4521 58.9712C93.0051 58.4182 93.7549 58.1074 94.5369 58.1071C95.3189 58.1074 96.0688 58.4182 96.6218 58.9712C97.1747 59.5241 97.4855 60.274 97.4859 61.056C97.4855 61.838 97.1747 62.5879 96.6218 63.1408C96.0688 63.6938 95.3189 64.0046 94.5369 64.0049V64.0049ZM95.3097 101.086C94.8378 101.191 94.3498 101.201 93.8738 101.117C93.3978 101.033 92.9431 100.855 92.536 100.595C92.1289 100.334 91.7773 99.9954 91.5016 99.5983C91.2258 99.2013 91.0313 98.7536 90.9293 98.2811C90.8272 97.8086 90.8196 97.3205 90.9069 96.8451C90.9942 96.3696 91.1747 95.9161 91.438 95.5106C91.7012 95.1052 92.0421 94.7558 92.4409 94.4826C92.8397 94.2094 93.2886 94.0178 93.7618 93.9188C94.2336 93.8137 94.7216 93.803 95.1976 93.8872C95.6736 93.9715 96.1283 94.149 96.5354 94.4097C96.9425 94.6703 97.2941 95.0089 97.5698 95.406C97.8456 95.803 98.0401 96.2507 98.1421 96.7232C98.2442 97.1957 98.2518 97.6838 98.1645 98.1593C98.0772 98.6347 97.8967 99.0882 97.6335 99.4937C97.3702 99.8991 97.0294 100.248 96.6305 100.522C96.2317 100.795 95.7828 100.987 95.3097 101.086V101.086Z" fill="#47848F"/>
</svg>
