<svg width="190" height="190" viewBox="0 0 190 190" fill="none" xmlns="http://www.w3.org/2000/svg">
<path d="M80.8604 113.721L93.4261 126.295L128 91.7131H102.86L80.8604 113.721Z" fill="#39CEFD"/>
<path d="M102.86 54H128L74.5737 107.434L62 94.8604L102.86 54Z" fill="#39CEFD"/>
<path d="M93.4265 126.294L102.861 135.721H128L106 113.721L93.4265 126.294Z" fill="#03569B"/>
<path d="M112.075 119.835L106 113.721L93.4265 126.294L112.075 119.835Z" fill="url(#paint0_linear)"/>
<path d="M80.8591 113.717L93.4331 101.143L106.008 113.717L93.4331 126.291L80.8591 113.717Z" fill="#16B9FD"/>
<path d="M128 91.7131L106 113.721L128 135.729H102.86L80.8526 113.721L102.86 91.7131H128ZM102.86 54L62 94.8604L74.5737 107.434L128 54H102.86V54Z" fill="url(#paint1_radial)"/>
<defs>
<linearGradient id="paint0_linear" x1="97.0959" y1="128.721" x2="106.46" y2="119.356" gradientUnits="userSpaceOnUse">
<stop stop-color="#1A237E" stop-opacity="0.4"/>
<stop offset="1" stop-color="#1A237E" stop-opacity="0"/>
</linearGradient>
<radialGradient id="paint1_radial" cx="0" cy="0" r="1" gradientUnits="userSpaceOnUse" gradientTransform="translate(63.8542 59.5704) scale(99.9851)">
<stop stop-color="white" stop-opacity="0.1"/>
<stop offset="1" stop-color="white" stop-opacity="0"/>
</radialGradient>
</defs>
</svg>
