<svg width="190" height="190" viewBox="0 0 190 190" fill="none" xmlns="http://www.w3.org/2000/svg">
<path d="M94.5 135.004C93.3975 135.004 92.3685 134.71 91.413 134.195L81.6377 128.389C80.1677 127.58 80.9027 127.286 81.3437 127.139C83.3282 126.478 83.6957 126.331 85.7536 125.155C85.9741 125.008 86.2681 125.081 86.4886 125.228L93.9855 129.712C94.2795 129.859 94.647 129.859 94.8675 129.712L124.194 112.733C124.488 112.586 124.635 112.292 124.635 111.925V78.0419C124.635 77.6744 124.488 77.3804 124.194 77.2334L94.8675 60.3287C94.5735 60.1817 94.206 60.1817 93.9855 60.3287L64.6594 77.2334C64.3654 77.3804 64.2184 77.7479 64.2184 78.0419V111.925C64.2184 112.219 64.3654 112.586 64.6594 112.733L72.6708 117.364C77.0072 119.569 79.7267 116.996 79.7267 114.424V80.9819C79.7267 80.5409 80.0942 80.0999 80.6087 80.0999H84.3571C84.7981 80.0999 85.2391 80.4674 85.2391 80.9819V114.424C85.2391 120.23 82.0787 123.611 76.5663 123.611C74.8758 123.611 73.5528 123.611 69.8043 121.774L62.087 117.364C60.176 116.261 59 114.203 59 111.998V78.1154C59 75.9105 60.176 73.8525 62.087 72.75L91.413 55.7717C93.2505 54.7428 95.7495 54.7428 97.587 55.7717L126.913 72.75C128.824 73.8525 130 75.9105 130 78.1154V111.998C130 114.203 128.824 116.261 126.913 117.364L97.587 134.342C96.6315 134.783 95.529 135.004 94.5 135.004ZM103.54 111.704C90.6781 111.704 88.0321 105.825 88.0321 100.827C88.0321 100.386 88.3996 99.9446 88.9141 99.9446H92.736C93.177 99.9446 93.5445 100.239 93.5445 100.68C94.1325 104.575 95.823 106.486 103.614 106.486C109.788 106.486 112.434 105.09 112.434 101.782C112.434 99.8711 111.699 98.4746 102.07 97.5192C94.059 96.7107 89.0611 94.9467 89.0611 88.5523C89.0611 82.5989 94.059 79.0709 102.438 79.0709C111.846 79.0709 116.476 82.3049 117.064 89.3608C117.064 89.5813 116.991 89.8018 116.844 90.0223C116.697 90.1693 116.476 90.3163 116.256 90.3163H112.434C112.066 90.3163 111.699 90.0223 111.625 89.6548C110.743 85.6123 108.465 84.2893 102.438 84.2893C95.676 84.2893 94.8675 86.6413 94.8675 88.4053C94.8675 90.5367 95.823 91.1982 104.937 92.3742C113.977 93.5502 118.24 95.2407 118.24 101.562C118.167 108.03 112.875 111.704 103.54 111.704Z" fill="#539E43"/>
</svg>
