<svg width="190" height="190" viewBox="0 0 190 190" fill="none" xmlns="http://www.w3.org/2000/svg">
<rect width="190" height="190" rx="12" fill="#D8E1E9"/>
<path d="M97.3906 70.3906H63.2188C60.8925 70.3906 59 72.2832 59 74.6094V103.156C59 105.482 60.8925 107.375 63.2188 107.375H73.7656V115.391H69.125C67.9601 115.391 67.0156 116.335 67.0156 117.5C67.0156 118.665 67.9601 119.609 69.125 119.609H91.625C92.7899 119.609 93.7344 118.665 93.7344 117.5C93.7344 116.335 92.7899 115.391 91.625 115.391H86.9844V107.375H97.3906C99.7168 107.375 101.609 105.482 101.609 103.156V74.6094C101.609 72.2832 99.7168 70.3906 97.3906 70.3906ZM82.7656 115.391H77.9844V107.375H82.7656V115.391ZM97.3906 103.156C96.4214 103.156 64.2148 103.156 63.2188 103.156V74.6094H97.3906C97.3933 104.628 97.4047 103.156 97.3906 103.156Z" fill="#264653"/>
<path d="M126.641 70.3906H110.609C108.283 70.3906 106.391 72.2832 106.391 74.6094V115.391C106.391 117.717 108.283 119.609 110.609 119.609H126.641C129.004 119.609 131 117.677 131 115.391V74.6094C131 72.3225 129.004 70.3906 126.641 70.3906ZM126.781 74.6759V79.3906H110.609V74.6094C127.741 74.6094 126.672 74.5724 126.781 74.6759ZM110.609 115.391V83.6094H126.781V115.324C126.672 115.427 127.731 115.391 110.609 115.391Z" fill="#264653"/>
<path d="M120.694 108.088C120.429 106.82 119.167 106.131 118.013 106.482C116.823 106.862 116.291 108.053 116.607 109.113C117.001 110.322 118.192 110.83 119.238 110.518C120.361 110.152 120.884 109.107 120.694 108.088V108.088Z" fill="#264653"/>
<path d="M120.694 99.088C120.429 97.82 119.167 97.1313 118.013 97.482C116.823 97.8616 116.291 99.0527 116.607 100.113C117.001 101.322 118.193 101.829 119.238 101.518C120.361 101.152 120.884 100.108 120.694 99.088V99.088Z" fill="#264653"/>
</svg>
