<svg width="190" height="190" viewBox="0 0 190 190" fill="none" xmlns="http://www.w3.org/2000/svg">
<rect width="190" height="190" rx="12" fill="#D8E1E9"/>
<path d="M105.642 71H84.2421C82.4592 71 81 72.4578 81 74.2421V115.757C81 117.541 82.4592 119 84.2421 119H105.642C107.425 119 108.884 117.544 108.884 115.758V74.2421C108.884 72.4578 107.425 71 105.642 71ZM91.5189 73.3369H98.365C98.5817 73.3369 98.7573 73.5125 98.7573 73.7305C98.7573 73.9472 98.5817 74.1227 98.365 74.1227H91.5189C91.3022 74.1227 91.1266 73.9472 91.1266 73.7305C91.1266 73.5125 91.3022 73.3369 91.5189 73.3369ZM94.9419 117.379C94.0464 117.379 93.3209 116.653 93.3209 115.757C93.3209 114.86 94.0464 114.136 94.9419 114.136C95.8375 114.136 96.563 114.86 96.563 115.757C96.563 116.653 95.8375 117.379 94.9419 117.379ZM106.628 113H83.256V76.1415H106.628V113Z" fill="#264653"/>
</svg>
