<svg width="190" height="190" viewBox="0 0 190 190" fill="none" xmlns="http://www.w3.org/2000/svg">
<rect width="190" height="190" rx="12" fill="#D8E1E9"/>
<path d="M113.826 93.5069C115.316 85.4134 109.053 78 100.859 78C96.1245 78 91.8874 80.5007 89.5525 84.3714C86.3678 83.3468 83.0932 83.7835 80.3953 85.6324C77.6989 87.4803 76.0886 90.4061 75.9582 93.6062C72.3553 95.296 70 98.8676 70 102.792C70 103.464 70.0662 104.136 70.1967 104.79C71.1458 109.547 75.3754 113 80.2539 113H109.648C115.356 113 120 108.421 120 102.792C120 98.775 117.552 95.1493 113.826 93.5069ZM109.648 110.083H80.2539C76.25 110.083 72.9297 106.852 72.9297 102.792C72.9297 99.7535 74.9353 97.005 77.9203 95.9526L78.9604 95.5858L78.8935 94.4894C78.7361 91.913 79.9187 89.5 82.0566 88.0348C84.3175 86.4853 87.091 86.3782 89.6298 87.5243L90.9493 88.12L91.5621 86.8129C93.2414 83.2311 96.8908 80.9167 100.859 80.9167C106.513 80.9167 111.113 85.4961 111.113 91.125C111.113 92.79 110.76 93.7981 110.37 95.1329C111.463 95.6974 111.639 95.802 112.007 95.9274C115.036 96.9601 117.07 99.7187 117.07 102.792C117.07 106.812 113.741 110.083 109.648 110.083Z" fill="#264653"/>
</svg>
